HIERARCHY
ROOT Hips
{
  OFFSET 43.0842 91.1655 101.099
  CHANNELS 6 Xposition Yposition Zposition Zrotation Xrotation Yrotation
  JOINT LeftUpLeg
  {
    OFFSET 8.64259 1.95398 -2.38835
    CHANNELS 3 Zrotation Xrotation Yrotation
    JOINT LeftLeg
    {
      OFFSET 43.7702 0 0
      CHANNELS 3 Zrotation Xrotation Yrotation
      JOINT LeftFoot
      {
        OFFSET 40.6238 0 0
        CHANNELS 3 Zrotation Xrotation Yrotation
        JOINT LeftToeBase
        {
          OFFSET 12.7242 0 0
          CHANNELS 3 Zrotation Xrotation Yrotation
          End Site
          {
            OFFSET 0 0 0
          }
        }
      }
    }
  }
  JOINT RightUpLeg
  {
    OFFSET -8.2249 1.95398 -2.59336
    CHANNELS 3 Zrotation Xrotation Yrotation
    JOINT RightLeg
    {
      OFFSET 43.5653 0 0
      CHANNELS 3 Zrotation Xrotation Yrotation
      JOINT RightFoot
      {
        OFFSET 40.6238 0 0
        CHANNELS 3 Zrotation Xrotation Yrotation
        JOINT RightToeBase
        {
          OFFSET 12.7242 0 0
          CHANNELS 3 Zrotation Xrotation Yrotation
          End Site
          {
            OFFSET 0 0 0
          }
        }
      }
    }
  }
  JOINT Spine
  {
    OFFSET 0.165834 0.87714 6.61349
    CHANNELS 3 Zrotation Xrotation Yrotation
    JOINT Spine1
    {
      OFFSET 7.38963 1.71661e-005 0
      CHANNELS 3 Zrotation Xrotation Yrotation
      JOINT Spine2
      {
        OFFSET 11.9445 1.14441e-005 0
        CHANNELS 3 Zrotation Xrotation Yrotation
        JOINT Spine3
        {
          OFFSET 14.7254 4.19617e-005 0
          CHANNELS 3 Zrotation Xrotation Yrotation
          JOINT Spine4
          {
            OFFSET 10.9679 0 0
            CHANNELS 3 Zrotation Xrotation Yrotation
            JOINT RightShoulder
            {
              OFFSET 2.46616 -1.6653 3.69651
              CHANNELS 3 Zrotation Xrotation Yrotation
              JOINT RightArm
              {
                OFFSET 13.0012 0 0
                CHANNELS 3 Zrotation Xrotation Yrotation
                JOINT RightForeArm
                {
                  OFFSET 28.7848 1.52588e-005 0
                  CHANNELS 3 Zrotation Xrotation Yrotation
                  JOINT RightHand
                  {
                    OFFSET 26.5688 1.52588e-005 0
                    CHANNELS 3 Zrotation Xrotation Yrotation
                    End Site
                    {
                      OFFSET 0 0 0
                    }
                  }
                }
              }
            }
            JOINT LeftShoulder
            {
              OFFSET 2.38034 -1.29275 -3.7523
              CHANNELS 3 Zrotation Xrotation Yrotation
              JOINT LeftArm
              {
                OFFSET 16.3182 6.10351e-005 0
                CHANNELS 3 Zrotation Xrotation Yrotation
                JOINT LeftForeArm
                {
                  OFFSET 27.0901 0 0
                  CHANNELS 3 Zrotation Xrotation Yrotation
                  JOINT LeftHand
                  {
                    OFFSET 24.5451 1.52588e-005 0
                    CHANNELS 3 Zrotation Xrotation Yrotation
                    End Site
                    {
                      OFFSET 0 0 0
                    }
                  }
                }
              }
            }
            JOINT Neck
            {
              OFFSET 5.0226 -0.0266342 0
              CHANNELS 3 Zrotation Xrotation Yrotation
              JOINT Head
              {
                OFFSET 6.69364 2.86102e-005 0
                CHANNELS 3 Zrotation Xrotation Yrotation
                End Site
                {
                  OFFSET 0 0 0
                }
              }
            }
          }
        }
      }
    }
  }
}
MOTION
Frames:	11
Frame Time:	0.0333333
47.9739 89.9394 116.472 -73.3828 -70.2411 -68.7506 -179.823 36.4469 102.423 -40.7591 30.5067 0.596188 59.7869 -2.07121 8.8571 32.5388 0.281225 7.77208 171.574 3.69106 86.1536 -28.4524 5.22096 -0.868182 66.0169 -4.18878 -0.208396 45.8325 -7.54872 -9.8187 1.27542 7.80169 -89.2372 11.2552 2.89323 1.23322 -0.413036 2.9447 1.1046 -22.9624 2.38886 2.04601 -2.94976 2.38886 2.046 95.3866 -31.1589 -95.681 53.0963 9.81266 -71.1851 -16.4955 -17.8158 -124.685 -9.92202 -0.970604 12.3211 -89.4251 -42.6201 77.9522 -39.6336 -36.2712 -74.2706 9.4025 27.6095 -115.328 25.7154 3.29076 2.17721 -27.291 4.16593 8.21022 9.41421 4.84514 -2.10838 
47.8077 90.6438 115.602 -80.4902 -64.5265 -76.4089 -177.049 33.0945 103.107 -37.3328 27.5699 -0.883724 59.3139 -2.9258 7.98676 32.4751 -0.222657 8.41002 170.62 4.14155 84.9968 -26.8348 5.18742 -0.123954 64.8948 -3.4881 -0.659921 43.512 -6.41366 -8.22971 1.16608 7.69866 -89.2469 11.4627 2.67194 1.22873 -0.20601 2.72342 1.10988 -22.7524 2.17915 1.97511 -2.73971 2.17915 1.97511 95.2058 -29.5565 -96.407 52.7127 6.58349 -69.7101 -16.2155 -17.4866 -124.181 -9.29024 -0.764475 11.5803 -89.4267 -43.355 78.1242 -38.2902 -40.089 -72.5799 9.89741 26.139 -116.951 25.4985 3.23752 1.60544 -28.1644 3.97679 10.5489 9.47841 4.89788 -2.70682 
47.3288 91.299 114.571 -84.1765 -59.5011 -80.5234 -175.062 29.6102 103.864 -33.311 23.5432 -1.80646 58.8417 -3.58671 6.63126 32.1264 -0.937191 8.70578 170.452 4.02319 84.6991 -23.9258 5.50356 0.201723 64.1625 -2.89912 -1.70046 41.4106 -6.2495 -2.9693 1.09273 7.60949 -89.2597 11.6418 2.52062 1.21321 -0.02716 2.57156 1.10105 -22.5717 2.0395 1.91479 -2.55901 2.03949 1.91479 95.3957 -29.1452 -96.1131 50.8045 3.35739 -68.6331 -14.5381 -16.5215 -122.937 -8.24198 -0.364138 11.6909 -89.0514 -42.5713 78.5499 -39.8829 -44.3296 -72.647 9.5384 27.0874 -118.531 27.5445 3.58466 2.30617 -27.8563 3.82948 11.2276 8.28553 4.8647 -2.33594 
46.7063 91.6683 113.36 -86.6353 -55.4172 -83.5154 -173.873 26.5776 104.447 -30.1782 20.3696 -2.28594 58.2474 -4.72363 5.78199 31.6853 -1.60176 8.70781 170.604 3.31232 84.3974 -21.0754 4.84499 0.0508588 64.5733 -3.83614 -2.55323 40.6918 -6.30311 -0.937747 0.949537 7.55915 -89.2416 11.7427 2.24466 1.27538 0.0731786 2.29861 1.17532 -22.4674 1.75763 1.89105 -2.45477 1.75763 1.89106 95.7356 -29.5667 -95.3229 49.4047 0.611271 -68.3043 -14.0146 -16.492 -121.836 -8.20249 -0.442437 10.2058 -88.5291 -41.7094 79.2076 -37.7132 -45.0066 -69.1939 10.9272 23.0945 -120.313 24.5023 3.1346 3.92322 -26.729 3.79784 12.1133 6.82414 4.77779 -2.84887 
45.9183 92.0211 112.007 -88.3827 -52.075 -85.7479 -173.476 23.6854 104.838 -27.1961 16.6567 -2.05553 57.1833 -6.46852 4.65917 31.2169 -2.40162 8.83837 171.049 2.54717 84.3226 -19.0326 2.99049 -0.482624 64.5587 -4.31319 -2.35501 40.743 -6.48311 -0.250014 0.837244 7.56415 -89.2401 11.7335 2.02205 1.30239 0.0635724 2.07743 1.21211 -22.4744 1.53722 1.84987 -2.46178 1.53721 1.84987 95.9779 -29.9432 -94.7476 47.6736 -1.49242 -67.7775 -14.74 -15.1878 -121.871 -8.95756 -0.705511 10.4236 -88.6051 -41.6429 79.0672 -38.8585 -48.0973 -69.2178 10.9557 24.3734 -121.883 23.8718 3.01005 3.46424 -25.537 3.83659 12.0019 5.70007 4.76745 -2.09115 
45.0563 92.2463 110.573 -89.275 -49.5077 -86.9685 -173.168 21.7613 105.348 -25.0184 14.5681 -1.91528 56.519 -7.64478 4.3077 30.6808 -4.01004 9.94151 171.847 2.05074 84.6281 -17.7188 0.950732 -1.18026 64.4614 -4.54283 -2.20622 41.2587 -7.00215 0.899444 0.697258 7.47775 -89.2839 11.908 1.72391 1.24264 0.237704 1.77692 1.16556 -22.2983 1.27079 1.70327 -2.28562 1.27079 1.70326 96.0678 -30.3226 -94.4932 46.9632 -3.10895 -66.3504 -13.5465 -15.0811 -121.633 -8.59087 -0.578756 10.2947 -88.8781 -42.679 78.8572 -36.1118 -49.2578 -66.0773 10.8483 22.7122 -122.975 23.7305 2.98877 3.71408 -25.2908 3.43571 13.1076 4.91481 4.3948 -2.6224 
44.3182 92.3048 109.227 -90.0989 -48.3044 -88.0688 -172.302 20.2563 105.526 -23.0191 15.5701 -2.44559 56.2013 -7.91516 5.10287 30.6622 -5.50162 11.871 172.094 1.49164 85.0052 -16.8267 1.40033 -1.34666 65.4994 -5.30289 -1.8673 40.8059 -7.02811 2.11845 0.521148 7.44785 -89.2628 11.9688 1.38382 1.32031 0.297982 1.44059 1.25813 -22.2349 0.923088 1.6751 -2.22219 0.923103 1.67511 96.0092 -32.7229 -94.1431 44.2311 -4.46464 -64.9118 -12.4862 -14.4069 -121.81 -8.78088 -0.65049 10.2553 -88.5627 -42.2772 79.2813 -36.3957 -49.173 -65.055 11.2045 21.8792 -123.942 22.4831 2.77049 4.02196 -24.7326 3.33358 11.3514 3.68115 4.22512 -1.02869 
43.797 92.2834 108.151 -91.2456 -47.7314 -89.2933 -171.102 19.3862 104.95 -22.8199 13.99 -3.22961 57.3413 -5.69026 3.56297 30.9173 -4.6211 11.2601 172.273 0.675269 85.4268 -16.217 0.724276 -1.41161 66.6052 -6.04334 -3.42136 39.3789 -6.36011 2.35625 0.356504 7.51416 -89.3361 11.8388 1.02123 1.21484 0.167734 1.07372 1.16872 -22.3643 0.60894 1.46556 -2.35162 0.608946 1.46555 96.1888 -33.1059 -93.7243 42.981 -6.02451 -63.9174 -12.2093 -13.6266 -121.914 -8.92315 -0.726031 9.83476 -89.2652 -43.5844 78.4381 -35.5466 -49.7698 -64.2271 11.7516 20.9138 -124.976 22.1838 2.7174 4.15744 -23.8719 2.95381 11.9189 2.80323 3.77305 -1.38389 
43.5657 92.1325 107.248 -92.4405 -47.2445 -90.5965 -170.358 18.8364 103.695 -24.4765 14.5184 -3.72254 59.2746 -2.3974 1.71431 32.0226 -2.74245 11.0982 172.532 0.685871 85.6212 -17.45 -0.130665 -1.71422 68.1233 -7.08194 -4.8181 37.987 -5.62832 2.24519 0.243164 7.55414 -89.4233 11.7608 0.754597 1.07008 0.0896748 0.800964 1.03583 -22.4426 0.398123 1.24736 -2.42993 0.398142 1.24737 95.9504 -33.7275 -94.0728 42.1998 -6.52314 -62.2102 -10.3212 -14.2991 -121.916 -9.38391 -0.887718 9.91949 -90.0579 -45.0167 77.5113 -34.3102 -49.0849 -61.9352 12.137 19.5841 -126.14 20.9289 2.49261 3.87207 -23.9906 2.35466 12.0128 2.38135 3.21607 -0.933671 
43.4872 91.9905 106.506 -93.2426 -46.6935 -91.579 -170.701 18.6108 102.648 -26.2375 15.6584 -3.4501 59.3639 -2.33518 2.80804 33.1561 -0.969382 11.1182 172.95 1.47257 85.746 -19.6245 -1.17583 -2.13171 68.7835 -7.42437 -5.81542 38.1875 -5.65451 1.93532 0.185737 7.57523 -89.4944 11.72 0.60679 0.94387 0.0489091 0.647759 0.916239 -22.4839 0.295094 1.08258 -2.47121 0.295089 1.08258 95.6539 -34.756 -94.4505 40.565 -7.23425 -60.5162 -10.2088 -13.1531 -121.762 -9.14596 -0.805621 9.85116 -90.9035 -46.2798 76.4922 -32.2019 -47.6417 -58.7378 13.4853 17.1415 -127.586 21.3003 2.55941 4.05726 -24.1682 2.17403 12.0905 2.08031 3.09832 -0.27946 
43.4306 91.9419 105.957 -94.0593 -45.8866 -92.3519 -170.951 17.8492 102.526 -25.6671 14.8869 -3.23714 58.6151 -3.75506 4.28868 33.3481 0.154446 9.8512 172.953 1.55818 85.7056 -20.3618 -1.75705 -2.23747 69.3316 -8.08559 -5.82729 37.9506 -5.55599 2.02928 0.175802 7.61813 -89.5778 11.6351 0.547633 0.784578 -0.0360154 0.581634 0.75971 -22.5696 0.286538 0.912881 -2.55693 0.286533 0.912883 95.5175 -34.8359 -94.6927 40.9084 -7.93161 -58.9912 -10.8332 -12.8301 -121.722 -9.65307 -1.03287 8.92793 -91.1338 -46.9747 76.3084 -31.0386 -46.5092 -56.6537 15.184 13.9848 -128.645 21.314 2.55139 4.79811 -24.0929 2.10124 12.9878 2.03831 3.06586 -0.604635 
